<svg xmlns="http://www.w3.org/2000/svg" viewBox="0 0 400 250">
  <defs>
    <linearGradient id="bg18" x1="0%" y1="0%" x2="100%" y2="100%">
      <stop offset="0%" style="stop-color:#e8f5e9"/>
      <stop offset="100%" style="stop-color:#c8e6c9"/>
    </linearGradient>
    <linearGradient id="book18" x1="0%" y1="0%" x2="100%" y2="100%">
      <stop offset="0%" style="stop-color:#1565c0"/>
      <stop offset="100%" style="stop-color:#0d47a1"/>
    </linearGradient>
  </defs>
  <rect width="400" height="250" fill="url(#bg18)" rx="20"/>
  <!-- Книга -->
  <rect x="60" y="100" width="100" height="80" fill="url(#book18)" rx="5"/>
  <rect x="65" y="105" width="90" height="70" fill="#fff" rx="3"/>
  <line x1="110" y1="105" x2="110" y2="175" stroke="#1565c0" stroke-width="2"/>
  <text x="85" y="130" font-family="Arial" font-size="10" fill="#1565c0">БИО</text>
  <text x="85" y="145" font-family="Arial" font-size="10" fill="#1565c0">ЛО</text>
  <text x="85" y="160" font-family="Arial" font-size="10" fill="#1565c0">ГИЯ</text>
  <!-- Микроскоп -->
  <rect x="250" y="60" width="20" height="80" fill="#546e7a" rx="3"/>
  <ellipse cx="260" cy="50" rx="25" ry="15" fill="#78909c"/>
  <rect x="255" y="140" width="50" height="10" fill="#546e7a" rx="3"/>
  <rect x="270" y="150" width="20" height="40" fill="#455a64"/>
  <ellipse cx="280" cy="195" rx="35" ry="12" fill="#37474f"/>
  <!-- Линзы -->
  <circle cx="260" cy="45" r="8" fill="#81d4fa" opacity="0.8"/>
  <circle cx="260" cy="100" r="6" fill="#81d4fa" opacity="0.6"/>
  <!-- Предметный столик -->
  <rect x="230" y="100" width="60" height="5" fill="#607d8b"/>
  <!-- Стрелки и надписи -->
  <text x="200" y="30" font-family="Arial" font-size="18" font-weight="bold" fill="#2e7d32" text-anchor="middle">Биология как наука</text>
  <path d="M165 140 Q200 140 235 100" stroke="#4caf50" stroke-width="2" fill="none" marker-end="url(#arrow)"/>
  <!-- ДНК декоративная -->
  <path d="M320 60 Q340 80 320 100 Q300 120 320 140 Q340 160 320 180" stroke="#81c784" stroke-width="3" fill="none"/>
  <path d="M335 60 Q315 80 335 100 Q355 120 335 140 Q315 160 335 180" stroke="#66bb6a" stroke-width="3" fill="none"/>
  <circle cx="327" cy="80" r="4" fill="#a5d6a7"/>
  <circle cx="327" cy="120" r="4" fill="#a5d6a7"/>
  <circle cx="327" cy="160" r="4" fill="#a5d6a7"/>
</svg>