<svg xmlns="http://www.w3.org/2000/svg" viewBox="0 0 400 250">
  <defs>
    <linearGradient id="bg23" x1="0%" y1="0%" x2="100%" y2="100%">
      <stop offset="0%" style="stop-color:#efebe9"/>
      <stop offset="100%" style="stop-color:#d7ccc8"/>
    </linearGradient>
  </defs>
  <rect width="400" height="250" fill="url(#bg23)" rx="20"/>
  <text x="200" y="30" font-family="Arial" font-size="18" font-weight="bold" fill="#5d4037" text-anchor="middle">Грибы</text>
  <!-- Шляпочный гриб -->
  <ellipse cx="100" cy="80" rx="50" ry="25" fill="#8d6e63"/>
  <rect x="85" y="80" width="30" height="70" fill="#bcaaa4"/>
  <ellipse cx="100" cy="80" rx="45" ry="20" fill="#a1887f"/>
  <circle cx="80" cy="75" r="5" fill="#d7ccc8"/>
  <circle cx="110" cy="78" r="4" fill="#d7ccc8"/>
  <circle cx="95" cy="70" r="3" fill="#d7ccc8"/>
  <text x="100" y="170" font-family="Arial" font-size="12" fill="#5d4037" text-anchor="middle">Шляпочный гриб</text>
  <!-- Плесень -->
  <circle cx="230" cy="100" r="35" fill="#c5e1a5"/>
  <circle cx="230" cy="100" r="25" fill="#aed581"/>
  <circle cx="230" cy="100" r="15" fill="#9ccc65"/>
  <line x1="230" y1="65" x2="230" y2="50" stroke="#7cb342" stroke-width="2"/>
  <circle cx="230" cy="45" r="5" fill="#8bc34a"/>
  <line x1="250" y1="75" x2="260" y2="60" stroke="#7cb342" stroke-width="2"/>
  <circle cx="265" cy="55" r="4" fill="#8bc34a"/>
  <line x1="210" y1="75" x2="200" y2="60" stroke="#7cb342" stroke-width="2"/>
  <circle cx="195" cy="55" r="4" fill="#8bc34a"/>
  <text x="230" y="170" font-family="Arial" font-size="12" fill="#558b2f" text-anchor="middle">Плесень</text>
  <!-- Дрожжи -->
  <circle cx="340" cy="80" r="15" fill="#ffe082"/>
  <circle cx="360" cy="95" r="12" fill="#ffca28"/>
  <circle cx="325" cy="100" r="14" fill="#ffc107"/>
  <circle cx="350" cy="120" r="10" fill="#ffb300"/>
  <text x="345" y="170" font-family="Arial" font-size="12" fill="#ff6f00" text-anchor="middle">Дрожжи</text>
  <!-- Грибница (мицелий) -->
  <path d="M50 220 Q70 200 90 220 Q110 240 130 220 Q150 200 170 220" stroke="#8d6e63" stroke-width="2" fill="none"/>
  <path d="M60 230 Q80 210 100 230 Q120 250 140 230" stroke="#a1887f" stroke-width="1.5" fill="none"/>
  <text x="200" y="240" font-family="Arial" font-size="12" fill="#5d4037" text-anchor="middle">Грибница (мицелий)</text>
  <circle cx="270" cy="210" r="8" fill="#bcaaa4"/>
  <line x1="270" y1="202" x2="270" y2="180" stroke="#8d6e63" stroke-width="1.5"/>
  <line x1="270" y1="180" x2="250" y2="170" stroke="#8d6e63" stroke-width="1.5"/>
  <line x1="270" y1="180" x2="290" y2="170" stroke="#8d6e63" stroke-width="1.5"/>
  <circle cx="250" cy="165" r="5" fill="#a1887f"/>
  <circle cx="290" cy="165" r="5" fill="#a1887f"/>
</svg>