<svg xmlns="http://www.w3.org/2000/svg" viewBox="0 0 400 250">
  <defs>
    <linearGradient id="bg20" x1="0%" y1="0%" x2="100%" y2="100%">
      <stop offset="0%" style="stop-color:#e3f2fd"/>
      <stop offset="100%" style="stop-color:#bbdefb"/>
    </linearGradient>
  </defs>
  <rect width="400" height="250" fill="url(#bg20)" rx="20"/>
  <text x="200" y="30" font-family="Arial" font-size="18" font-weight="bold" fill="#1565c0" text-anchor="middle">Методы биологии</text>
  <!-- Наблюдение - глаз -->
  <rect x="40" y="60" width="130" height="130" fill="#fff" rx="15" stroke="#64b5f6" stroke-width="2"/>
  <ellipse cx="105" cy="115" rx="40" ry="25" fill="#fff" stroke="#90caf9" stroke-width="2"/>
  <circle cx="105" cy="115" r="20" fill="#42a5f5"/>
  <circle cx="105" cy="115" r="10" fill="#1e88e5"/>
  <circle cx="100" cy="110" r="4" fill="#fff"/>
  <text x="105" y="205" font-family="Arial" font-size="14" fill="#1565c0" text-anchor="middle">Наблюдение</text>
  <!-- Эксперимент - пробирки -->
  <rect x="230" y="60" width="130" height="130" fill="#fff" rx="15" stroke="#81c784" stroke-width="2"/>
  <rect x="260" y="80" width="20" height="60" fill="#c8e6c9" rx="10"/>
  <rect x="260" y="120" width="20" height="30" fill="#81c784" rx="10"/>
  <rect x="290" y="80" width="20" height="60" fill="#bbdefb" rx="10"/>
  <rect x="290" y="110" width="20" height="40" fill="#64b5f6" rx="10"/>
  <rect x="320" y="80" width="20" height="60" fill="#ffcdd2" rx="10"/>
  <rect x="320" y="130" width="20" height="20" fill="#ef5350" rx="10"/>
  <text x="295" y="205" font-family="Arial" font-size="14" fill="#2e7d32" text-anchor="middle">Эксперимент</text>
  <!-- Лупа сравнения -->
  <circle cx="200" cy="220" r="20" fill="none" stroke="#9e9e9e" stroke-width="4"/>
  <line x1="215" y1="235" x2="230" y2="250" stroke="#9e9e9e" stroke-width="4"/>
</svg>