<svg xmlns="http://www.w3.org/2000/svg" viewBox="0 0 400 250">
  <defs>
    <linearGradient id="bg34" x1="0%" y1="0%" x2="100%" y2="100%">
      <stop offset="0%" style="stop-color:#e8f5e9"/>
      <stop offset="100%" style="stop-color:#c8e6c9"/>
    </linearGradient>
  </defs>
  <rect width="400" height="250" fill="url(#bg34)" rx="20"/>
  <text x="200" y="30" font-family="Arial" font-size="18" font-weight="bold" fill="#2e7d32" text-anchor="middle">Пресмыкающиеся (Рептилии)</text>
  <!-- Ящерица -->
  <ellipse cx="200" cy="130" rx="80" ry="30" fill="#795548"/>
  <ellipse cx="130" cy="125" rx="25" ry="18" fill="#8d6e63"/>
  <!-- Глаз -->
  <circle cx="120" cy="120" r="6" fill="#ffeb3b"/>
  <circle cx="120" cy="120" r="3" fill="#000"/>
  <!-- Хвост -->
  <path d="M280 130 Q320 120 350 140 Q360 150 355 145" stroke="#6d4c41" stroke-width="12" fill="none" stroke-linecap="round"/>
  <!-- Лапы -->
  <path d="M150 155 L140 180 L130 175" stroke="#5d4037" stroke-width="6" fill="none" stroke-linecap="round"/>
  <path d="M180 155 L175 180 L165 175" stroke="#5d4037" stroke-width="6" fill="none" stroke-linecap="round"/>
  <path d="M230 155 L235 180 L245 175" stroke="#5d4037" stroke-width="6" fill="none" stroke-linecap="round"/>
  <path d="M260 155 L270 180 L280 175" stroke="#5d4037" stroke-width="6" fill="none" stroke-linecap="round"/>
  <!-- Чешуйки на спине -->
  <ellipse cx="170" cy="115" rx="8" ry="5" fill="#6d4c41"/>
  <ellipse cx="200" cy="115" rx="8" ry="5" fill="#6d4c41"/>
  <ellipse cx="230" cy="115" rx="8" ry="5" fill="#6d4c41"/>
  <ellipse cx="260" cy="120" rx="8" ry="5" fill="#6d4c41"/>
  <!-- Язык -->
  <path d="M105 125 L85 125 L80 120 M85 125 L80 130" stroke="#e53935" stroke-width="2" fill="none"/>
  <!-- Признаки рептилий -->
  <rect x="30" y="200" width="80" height="35" fill="#fff" stroke="#4caf50" stroke-width="2" rx="5"/>
  <text x="70" y="222" font-family="Arial" font-size="10" fill="#2e7d32" text-anchor="middle">Сухая кожа</text>
  <rect x="120" y="200" width="80" height="35" fill="#fff" stroke="#4caf50" stroke-width="2" rx="5"/>
  <text x="160" y="222" font-family="Arial" font-size="10" fill="#2e7d32" text-anchor="middle">Чешуя</text>
  <rect x="210" y="200" width="80" height="35" fill="#fff" stroke="#4caf50" stroke-width="2" rx="5"/>
  <text x="250" y="222" font-family="Arial" font-size="10" fill="#2e7d32" text-anchor="middle">Лёгочные</text>
  <rect x="300" y="200" width="80" height="35" fill="#fff" stroke="#4caf50" stroke-width="2" rx="5"/>
  <text x="340" y="222" font-family="Arial" font-size="10" fill="#2e7d32" text-anchor="middle">Холоднокров.</text>
</svg>