<svg xmlns="http://www.w3.org/2000/svg" viewBox="0 0 400 250">
  <defs>
    <linearGradient id="bg31" x1="0%" y1="0%" x2="100%" y2="100%">
      <stop offset="0%" style="stop-color:#fce4ec"/>
      <stop offset="100%" style="stop-color:#f8bbd0"/>
    </linearGradient>
  </defs>
  <rect width="400" height="250" fill="url(#bg31)" rx="20"/>
  <text x="200" y="30" font-family="Arial" font-size="18" font-weight="bold" fill="#c2185b" text-anchor="middle">Анатомия человека</text>
  <!-- Контур тела -->
  <ellipse cx="200" cy="80" rx="30" ry="35" fill="#ffccbc"/>
  <!-- Голова -->
  <circle cx="200" cy="55" r="25" fill="#ffccbc"/>
  <circle cx="190" cy="50" r="3" fill="#5d4037"/>
  <circle cx="210" cy="50" r="3" fill="#5d4037"/>
  <path d="M195 65 Q200 70 205 65" stroke="#5d4037" stroke-width="2" fill="none"/>
  <!-- Туловище -->
  <rect x="170" y="90" width="60" height="80" fill="#ffccbc" rx="10"/>
  <!-- Скелет внутри -->
  <line x1="200" y1="60" x2="200" y2="170" stroke="#e0e0e0" stroke-width="4"/>
  <!-- Рёбра -->
  <path d="M185 100 Q170 105 185 115" stroke="#bdbdbd" stroke-width="2" fill="none"/>
  <path d="M215 100 Q230 105 215 115" stroke="#bdbdbd" stroke-width="2" fill="none"/>
  <path d="M183 115 Q165 120 183 130" stroke="#bdbdbd" stroke-width="2" fill="none"/>
  <path d="M217 115 Q235 120 217 130" stroke="#bdbdbd" stroke-width="2" fill="none"/>
  <!-- Сердце -->
  <path d="M195 110 Q185 100 190 110 Q195 120 200 115 Q205 120 210 110 Q215 100 205 110" fill="#e53935"/>
  <!-- Лёгкие -->
  <ellipse cx="180" cy="110" rx="15" ry="20" fill="#bbdefb" opacity="0.7"/>
  <ellipse cx="220" cy="110" rx="15" ry="20" fill="#bbdefb" opacity="0.7"/>
  <!-- Руки -->
  <rect x="140" y="95" width="25" height="60" fill="#ffccbc" rx="8"/>
  <rect x="235" y="95" width="25" height="60" fill="#ffccbc" rx="8"/>
  <!-- Кости рук -->
  <line x1="152" y1="95" x2="152" y2="150" stroke="#e0e0e0" stroke-width="3"/>
  <line x1="248" y1="95" x2="248" y2="150" stroke="#e0e0e0" stroke-width="3"/>
  <!-- Ноги -->
  <rect x="175" y="170" width="20" height="60" fill="#ffccbc" rx="5"/>
  <rect x="205" y="170" width="20" height="60" fill="#ffccbc" rx="5"/>
  <!-- Кости ног -->
  <line x1="185" y1="170" x2="185" y2="230" stroke="#e0e0e0" stroke-width="3"/>
  <line x1="215" y1="170" x2="215" y2="230" stroke="#e0e0e0" stroke-width="3"/>
  <!-- Подписи органов -->
  <line x1="200" y1="108" x2="250" y2="70" stroke="#c2185b" stroke-width="1"/>
  <text x="260" y="70" font-family="Arial" font-size="10" fill="#c2185b">Сердце</text>
  <line x1="178" y1="100" x2="100" y2="70" stroke="#1565c0" stroke-width="1"/>
  <text x="80" y="70" font-family="Arial" font-size="10" fill="#1565c0">Лёгкие</text>
  <line x1="200" y1="140" x2="300" y2="140" stroke="#9e9e9e" stroke-width="1"/>
  <text x="310" y="140" font-family="Arial" font-size="10" fill="#757575">Позвоночник</text>
  <!-- Мозг -->
  <ellipse cx="200" cy="50" rx="18" ry="12" fill="#f8bbd0"/>
  <path d="M185 50 Q190 45 200 50 Q210 55 215 50" stroke="#e91e63" stroke-width="1" fill="none"/>
  <text x="200" y="35" font-family="Arial" font-size="9" fill="#c2185b" text-anchor="middle">Мозг</text>
</svg>